<?xml version="1.0" encoding="UTF-8" standalone="no"?>
<svg
   xmlns:ns9="http://www.iki.fi/pav/software/textext/"
   xmlns:dc="http://purl.org/dc/elements/1.1/"
   xmlns:cc="http://creativecommons.org/ns#"
   xmlns:rdf="http://www.w3.org/1999/02/22-rdf-syntax-ns#"
   xmlns:svg="http://www.w3.org/2000/svg"
   xmlns="http://www.w3.org/2000/svg"
   xmlns:sodipodi="http://sodipodi.sourceforge.net/DTD/sodipodi-0.dtd"
   xmlns:inkscape="http://www.inkscape.org/namespaces/inkscape"
   version="1.1"
   id="svg2"
   xml:space="preserve"
   width="560"
   height="420"
   viewBox="0 0 560 420"
   sodipodi:docname="Fragility_4.svg"
   inkscape:version="1.0.2 (e86c870879, 2021-01-15)"><metadata
     id="metadata8"><rdf:RDF><cc:Work
         rdf:about=""><dc:format>image/svg+xml</dc:format><dc:type
           rdf:resource="http://purl.org/dc/dcmitype/StillImage" /><dc:title /></cc:Work></rdf:RDF></metadata><defs
     id="defs6" /><sodipodi:namedview
     pagecolor="#ffffff"
     bordercolor="#666666"
     borderopacity="1"
     objecttolerance="10"
     gridtolerance="10"
     guidetolerance="10"
     inkscape:pageopacity="0"
     inkscape:pageshadow="2"
     inkscape:window-width="2560"
     inkscape:window-height="1547"
     id="namedview4"
     showgrid="false"
     inkscape:zoom="3.2121172"
     inkscape:cx="280.62264"
     inkscape:cy="210"
     inkscape:window-x="0"
     inkscape:window-y="27"
     inkscape:window-maximized="1"
     inkscape:current-layer="g10"
     inkscape:document-rotation="0" /><g
     id="g10"
     inkscape:groupmode="layer"
     inkscape:label="ink_ext_XXXXXX"
     transform="matrix(1.33333 0 0 -1.33333 0 420)"><g
       id="g12"
       transform="scale(0.1)"><path
         d="M 0,0 H 4200 V 3150 H 0 Z"
         style="fill:#ffffff;fill-opacity:1;fill-rule:nonzero;stroke:none"
         id="path14" /><path
         d="M 0,0 H 4200 V 3150 H 0 Z"
         style="fill:#ffffff;fill-opacity:1;fill-rule:nonzero;stroke:none"
         id="path16" /><path
         d="m 592.5,345 h 3210 v 2572.5 h -3210 z"
         style="fill:#ffffff;fill-opacity:1;fill-rule:nonzero;stroke:none"
         id="path18" /><path
         d="m 592.5,345 h 3210"
         style="fill:none;stroke:#262626;stroke-width:5.0025;stroke-linecap:square;stroke-linejoin:round;stroke-miterlimit:10;stroke-dasharray:none;stroke-opacity:1"
         id="path20" /><path
         d="m 592.5,2917.5 h 3210"
         style="fill:none;stroke:#262626;stroke-width:5.0025;stroke-linecap:square;stroke-linejoin:round;stroke-miterlimit:10;stroke-dasharray:none;stroke-opacity:1"
         id="path22" /><path
         d="m 2173.06,120.453 c -6.17,0 -11.66,1.465 -16.46,4.395 -4.81,2.929 -8.5,6.875 -11.07,11.836 -2.58,4.957 -3.87,10.562 -3.87,16.812 0,8.832 2.46,17.563 7.38,26.199 4.92,8.629 11.45,15.641 19.57,21.032 8.13,5.386 16.68,8.082 25.67,8.082 6.56,0 12.36,-1.715 17.4,-5.153 5.03,-3.437 8.84,-8.027 11.42,-13.769 2.58,-5.739 3.87,-11.891 3.87,-18.457 l 0.23,-13.004 c 4.46,6.168 8.23,12.554 11.31,19.152 3.09,6.606 5.45,13.465 7.09,20.574 0.24,0.782 0.74,1.172 1.52,1.172 h 2.23 c 1.25,0 1.87,-0.59 1.87,-1.765 0,-0.153 -0.07,-0.348 -0.23,-0.582 -1.48,-6.016 -3.38,-11.758 -5.69,-17.231 -2.3,-5.465 -5,-10.777 -8.08,-15.937 -3.08,-5.153 -6.42,-9.801 -10.02,-13.942 0,-16.168 1.88,-24.254 5.63,-24.254 2.42,0 4.41,0.723 5.97,2.168 1.57,1.446 2.94,3.203 4.11,5.27 1.17,2.07 1.91,3.148 2.22,3.226 h 2.34 c 1.02,0 1.53,-0.625 1.53,-1.875 0,-3.203 -1.86,-6.328 -5.57,-9.375 -3.71,-3.05 -7.36,-4.574 -10.96,-4.574 -4.68,0 -8.59,1.524 -11.71,4.574 -3.13,3.047 -5.28,7.028 -6.45,11.95 -6.09,-5.239 -12.69,-9.301 -19.8,-12.188 -7.11,-2.891 -14.26,-4.336 -21.45,-4.336 z m 0.35,5.16 c 13.91,0 27.23,5.703 39.96,17.106 -0.07,0.781 -0.17,1.738 -0.29,2.875 -0.12,1.129 -0.17,1.734 -0.17,1.812 v 21.09 c 0,23.52 -6.33,35.281 -18.98,35.281 -7.66,0 -14.34,-3.242 -20.05,-9.726 -5.7,-6.485 -10,-14.262 -12.89,-23.324 -2.89,-9.063 -4.33,-17.34 -4.33,-24.84 0,-5.625 1.44,-10.41 4.33,-14.356 2.89,-3.945 7.03,-5.918 12.42,-5.918"
         style="fill:#262626;fill-opacity:1;fill-rule:nonzero;stroke:none"
         id="path24" /><path
         d="M 592.5,345 V 2917.5"
         style="fill:none;stroke:#262626;stroke-width:5.0025;stroke-linecap:square;stroke-linejoin:round;stroke-miterlimit:10;stroke-dasharray:none;stroke-opacity:1"
         id="path26" /><path
         d="M 3802.5,345 V 2917.5"
         style="fill:none;stroke:#262626;stroke-width:5.0025;stroke-linecap:square;stroke-linejoin:round;stroke-miterlimit:10;stroke-dasharray:none;stroke-opacity:1"
         id="path28" /><path
         d="m 592.5,345 h 32.102"
         style="fill:none;stroke:#262626;stroke-width:5.0025;stroke-linecap:square;stroke-linejoin:round;stroke-miterlimit:10;stroke-dasharray:none;stroke-opacity:1"
         id="path30" /><path
         d="m 592.5,859.5 h 32.102"
         style="fill:none;stroke:#262626;stroke-width:5.0025;stroke-linecap:square;stroke-linejoin:round;stroke-miterlimit:10;stroke-dasharray:none;stroke-opacity:1"
         id="path32" /><path
         d="m 592.5,1374 h 32.102"
         style="fill:none;stroke:#262626;stroke-width:5.0025;stroke-linecap:square;stroke-linejoin:round;stroke-miterlimit:10;stroke-dasharray:none;stroke-opacity:1"
         id="path34" /><path
         d="m 592.5,1888.5 h 32.102"
         style="fill:none;stroke:#262626;stroke-width:5.0025;stroke-linecap:square;stroke-linejoin:round;stroke-miterlimit:10;stroke-dasharray:none;stroke-opacity:1"
         id="path36" /><path
         d="m 592.5,2403 h 32.102"
         style="fill:none;stroke:#262626;stroke-width:5.0025;stroke-linecap:square;stroke-linejoin:round;stroke-miterlimit:10;stroke-dasharray:none;stroke-opacity:1"
         id="path38" /><path
         d="m 592.5,2917.5 h 32.102"
         style="fill:none;stroke:#262626;stroke-width:5.0025;stroke-linecap:square;stroke-linejoin:round;stroke-miterlimit:10;stroke-dasharray:none;stroke-opacity:1"
         id="path40" /><path
         d="m 3802.5,345 h -32.1"
         style="fill:none;stroke:#262626;stroke-width:5.0025;stroke-linecap:square;stroke-linejoin:round;stroke-miterlimit:10;stroke-dasharray:none;stroke-opacity:1"
         id="path42" /><path
         d="m 3802.5,859.5 h -32.1"
         style="fill:none;stroke:#262626;stroke-width:5.0025;stroke-linecap:square;stroke-linejoin:round;stroke-miterlimit:10;stroke-dasharray:none;stroke-opacity:1"
         id="path44" /><path
         d="m 3802.5,1374 h -32.1"
         style="fill:none;stroke:#262626;stroke-width:5.0025;stroke-linecap:square;stroke-linejoin:round;stroke-miterlimit:10;stroke-dasharray:none;stroke-opacity:1"
         id="path46" /><path
         d="m 3802.5,1888.5 h -32.1"
         style="fill:none;stroke:#262626;stroke-width:5.0025;stroke-linecap:square;stroke-linejoin:round;stroke-miterlimit:10;stroke-dasharray:none;stroke-opacity:1"
         id="path48" /><path
         d="m 3802.5,2403 h -32.1"
         style="fill:none;stroke:#262626;stroke-width:5.0025;stroke-linecap:square;stroke-linejoin:round;stroke-miterlimit:10;stroke-dasharray:none;stroke-opacity:1"
         id="path50" /><path
         d="m 3802.5,2917.5 h -32.1"
         style="fill:none;stroke:#262626;stroke-width:5.0025;stroke-linecap:square;stroke-linejoin:round;stroke-miterlimit:10;stroke-dasharray:none;stroke-opacity:1"
         id="path52" /><g
         id="g54"
         transform="scale(10)"><text
           transform="matrix(1,0,0,-1,41.65,28.125)"
           style="font-variant:normal;font-weight:normal;font-size:18px;font-family:Helvetica;-inkscape-font-specification:Helvetica;writing-mode:lr-tb;fill:#262626;fill-opacity:1;fill-rule:nonzero;stroke:none"
           id="text68"><tspan
             x="0"
             y="0"
             id="tspan56">0</tspan><tspan
             x="-17.25 -7.2420001 -2.2379999"
             y="-51.450001"
             sodipodi:role="line"
             id="tspan58">0.2</tspan><tspan
             x="-17.25 -7.2420001 -2.2379999"
             y="-102.9"
             sodipodi:role="line"
             id="tspan60">0.4</tspan><tspan
             x="-17.25 -7.2420001 -2.2379999"
             y="-154.35001"
             sodipodi:role="line"
             id="tspan62">0.6</tspan><tspan
             x="-17.25 -7.2420001 -2.2379999"
             y="-205.8"
             sodipodi:role="line"
             id="tspan64">0.8</tspan><tspan
             x="0"
             y="-257.25"
             id="tspan66">1</tspan></text></g><path
         d="m 149.199,1540.13 c 0,-1.17 -0.781,-1.75 -2.347,-1.75 -0.309,0.07 -0.836,0.19 -1.582,0.35 -0.739,0.16 -1.325,0.41 -1.754,0.76 -0.43,0.35 -0.645,0.76 -0.645,1.23 0,7.26 -0.43,12.38 -1.293,15.35 -0.465,1.48 -2.062,2.58 -4.797,3.29 l -98.9099,24.72 c -1.1719,0.23 -1.9922,0.35 -2.4609,0.35 -1.25,0 -1.9532,-0.7 -2.1094,-2.11 -0.4688,-2.27 -0.7031,-6.6 -0.7031,-13 0,-1.18 -0.8204,-1.77 -2.461,-1.77 -0.2344,0.08 -0.7226,0.2 -1.4609,0.36 -0.7461,0.15 -1.332,0.41 -1.7617,0.76 -0.4297,0.35 -0.6485,0.76 -0.6485,1.23 v 62.11 c 0,5.7 1,11.21 2.9961,16.52 1.9883,5.32 5.0742,9.67 9.2539,13.07 4.1797,3.4 9.2383,5.1 15.1797,5.1 7.5742,0 14.3516,-2.68 20.3242,-8.03 5.9805,-5.35 10.6524,-12.03 14.0118,-20.04 3.3593,-8.01 5.039,-15.76 5.039,-23.26 v -29.3 l 44.4067,-10.89 c 1.175,-0.24 2.035,-0.36 2.582,-0.36 0.468,0 0.859,0.06 1.168,0.17 0.316,0.12 0.511,0.32 0.593,0.6 0.075,0.27 0.192,0.71 0.344,1.34 0.473,2.27 0.707,6.6 0.707,13.01 0,1.17 0.781,1.76 2.348,1.76 1.715,-0.47 2.804,-0.82 3.277,-1.06 0.469,-0.23 0.703,-0.93 0.703,-2.11 z m -61.5232,46.88 v 25.19 c 0,11.65 -3.125,20.51 -9.375,26.6 -3.125,3.13 -7.6172,5.67 -13.4766,7.63 -5.8594,1.95 -11.1719,2.93 -15.9375,2.93 -5.9375,0 -10.1406,-2.25 -12.5976,-6.75 -2.461,-4.48 -3.6914,-10.09 -3.6914,-16.81 v -17.23 c 0,-3.28 0.2734,-5.44 0.8164,-6.5 0.5507,-1.05 2.3125,-2.02 5.2812,-2.87 l 48.9805,-12.19"
         style="fill:#262626;fill-opacity:1;fill-rule:nonzero;stroke:none"
         id="path70" /><path
         d="m 197.289,1659.33 c 1.176,1.56 1.762,3.47 1.762,5.74 0,2.97 -3.36,5.43 -10.078,7.39 -3.282,0.78 -13.946,2.92 -31.996,6.44 l -31.282,5.86 v -10.9 c 0,-0.86 -0.547,-1.29 -1.644,-1.29 -1.875,0.31 -2.813,0.86 -2.813,1.64 v 11.37 l -8.324,1.53 c -2.574,0.46 -4.777,0.91 -6.613,1.34 -1.84,0.43 -3.539,0.88 -5.102,1.35 -1.5623,0.47 -3.3201,1.17 -5.2732,2.1 -2.8125,1.49 -5.1172,3.46 -6.9141,5.93 -1.7929,2.46 -2.6914,5.13 -2.6914,8.03 0,1.79 0.3281,3.59 0.9883,5.39 0.668,1.79 1.6836,3.24 3.0547,4.33 1.3633,1.09 2.9844,1.63 4.8594,1.63 2.1914,0 4.0859,-0.69 5.6833,-2.1 1.602,-1.41 2.403,-3.12 2.403,-5.15 0,-1.41 -0.43,-2.6 -1.293,-3.58 -0.86,-0.98 -1.95,-1.46 -3.2777,-1.46 -1.875,0 -3.5117,0.64 -4.918,1.93 -1.4101,1.29 -2.2344,2.83 -2.4687,4.63 -1.168,-1.57 -1.7539,-3.48 -1.7539,-5.75 0,-1.32 0.6054,-2.55 1.8164,-3.69 1.207,-1.13 2.4765,-1.85 3.8086,-2.16 2.1914,-0.55 8.0503,-1.76 17.5783,-3.63 l 8.437,-1.54 v 13.13 c 0,0.86 0.551,1.29 1.645,1.29 0.23,-0.08 0.601,-0.17 1.109,-0.29 0.512,-0.12 0.922,-0.29 1.231,-0.53 0.316,-0.23 0.472,-0.51 0.472,-0.81 v -13.6 l 31.168,-5.98 c 4.532,-0.7 9.121,-1.54 13.774,-2.52 4.644,-0.97 9.429,-2.36 14.351,-4.15 4.922,-1.8 9.043,-4.07 12.364,-6.8 3.32,-2.74 4.976,-5.99 4.976,-9.74 0,-2.8 -0.816,-5.34 -2.457,-7.6 -1.641,-2.27 -3.789,-3.4 -6.445,-3.4 -2.188,0 -4.082,0.7 -5.684,2.1 -1.601,1.41 -2.398,3.17 -2.398,5.28 0,1.4 0.429,2.57 1.289,3.52 0.855,0.93 1.945,1.4 3.277,1.4 1.875,0 3.574,-0.67 5.102,-1.99 1.519,-1.33 2.277,-2.89 2.277,-4.69"
         style="fill:#262626;fill-opacity:1;fill-rule:nonzero;stroke:none"
         id="path72" /><path
         d="m 592.5,345 h 1291.71 l 3.22,0.008 h 25.7 l 3.22,0.008 h 3.21 3.21 3.21 l 3.22,0.007 h 3.21 l 3.21,0.008 h 3.22 l 3.21,0.008 h 3.21 l 3.22,0.008 3.21,0.004 h 3.22 l 3.2,0.008 3.22,0.007 3.21,0.016 3.21,0.008 3.22,0.008 3.21,0.015 3.22,0.016 3.21,0.016 3.21,0.011 3.22,0.024 3.21,0.015 3.21,0.032 3.21,0.019 3.22,0.031 3.21,0.032 3.22,0.035 3.21,0.039 3.21,0.043 3.22,0.047 3.2,0.05 3.22,0.063 3.21,0.059 3.22,0.066 3.21,0.086 3.21,0.082 3.22,0.09 3.21,0.105 3.22,0.11 3.21,0.121 3.21,0.136 3.21,0.149 3.21,0.156 3.22,0.18 3.21,0.187 3.22,0.211 3.21,0.227 3.21,0.246 3.21,0.277 3.21,0.293 3.22,0.317 3.21,0.351 3.22,0.375 3.21,0.406 3.21,0.442 3.22,0.48 3.21,0.516 3.22,0.562 3.21,0.602 3.21,0.652 3.21,0.703 3.22,0.766 3.21,0.82 3.21,0.875 3.22,0.946 3.21,1.011 3.21,1.098 3.21,1.168 3.22,1.254 3.21,1.34 3.21,1.441 3.22,1.539 3.21,1.641 3.22,1.754 3.21,1.871 3.21,2 3.22,2.125 3.2,2.262 3.22,2.41 3.21,2.554 3.22,2.723 3.21,2.891 3.21,3.058 3.22,3.239 3.21,3.437 3.21,3.637 3.22,3.84 3.21,4.058 3.21,4.282 3.22,4.523 3.21,4.762 3.21,5.015 3.22,5.282 3.21,5.558 3.22,5.836 3.2,6.125 3.22,6.43 3.21,6.742 3.21,7.062 3.22,7.391 3.21,7.731 3.22,8.085 3.21,8.438 3.21,8.812 3.22,9.188 3.21,9.57 3.21,9.969 3.21,10.363 3.22,10.785 3.21,11.196 3.21,11.625 3.22,12.062 3.21,12.496 3.21,12.942 3.21,13.398 3.22,13.852 3.21,14.316 3.21,14.778 3.22,15.246 3.21,15.718 3.22,16.188 3.21,16.672 3.22,17.136 3.21,17.625 3.2,18.09 3.22,18.571 3.21,19.043 3.22,19.507 3.21,19.973 3.22,20.438 3.21,20.894 3.21,21.336 3.21,21.781 3.22,22.215 3.21,22.642 3.21,23.06 3.22,23.46 3.21,23.86 3.21,24.25 3.22,24.61 3.21,24.96 3.22,25.31 3.21,25.65 3.21,25.95 3.21,26.24 3.22,26.53 3.21,26.78 3.21,27.03 3.22,27.25 3.21,27.46 3.21,27.65 3.21,27.81 3.22,27.96 3.21,28.08 3.21,28.18 3.22,28.26 3.21,28.33 3.22,28.37 3.21,28.38 3.22,28.38 3.21,28.35 3.2,28.31 3.22,28.24 3.21,28.14 3.22,28.04 3.21,27.9 3.21,27.75 3.22,27.58 3.21,27.38 3.21,27.18 3.22,26.93 3.21,26.69 3.21,26.42 3.21,26.14 3.22,25.83 3.21,25.52 3.22,25.18 3.21,24.83 3.22,24.48 3.2,24.09 3.21,23.72 3.22,23.31 3.21,22.9 3.22,22.48 3.21,22.05 3.22,21.62 3.21,21.17 3.21,20.71 3.22,20.27 3.21,19.8 3.21,19.33 3.21,18.86 3.22,18.39 3.21,17.91 3.21,17.44 3.22,16.96 3.21,16.49 3.21,16.01 3.21,15.54 3.22,15.07 3.21,14.6 3.21,14.14 3.22,13.67 3.21,13.23 3.22,12.77 3.21,12.33 3.22,11.9 3.21,11.46 3.2,11.04 3.22,10.62 3.21,10.21 3.22,9.82 3.21,9.43 3.22,9.04 3.21,8.67 3.21,8.3 3.21,7.95 3.22,7.6 3.21,7.26 3.21,6.94 3.22,6.62 3.21,6.32 3.21,6.01 3.22,5.73 3.21,5.45 3.22,5.18 3.21,4.92 3.21,4.67 3.21,4.43 3.21,4.2 3.22,3.97 3.21,3.77 3.22,3.55 3.21,3.36 3.21,3.17 3.22,3 3.21,2.82 3.21,2.66 3.21,2.5 3.22,2.35 3.21,2.22 3.22,2.07 3.21,1.95 3.21,1.82 3.22,1.71 3.2,1.61 3.22,1.5 3.21,1.4 3.22,1.31 3.21,1.22 3.21,1.14 3.22,1.06 3.21,0.99 3.21,0.92 3.22,0.85 3.21,0.8 3.21,0.74 3.21,0.68 3.22,0.64 3.21,0.58 3.22,0.55 3.21,0.5 3.22,0.46 3.2,0.43 3.21,0.4 3.22,0.36 3.21,0.34 3.22,0.31 3.21,0.29 3.22,0.25 3.21,0.24 3.21,0.23 3.22,0.2 3.21,0.19 3.21,0.16 3.21,0.16 3.22,0.14 3.21,0.13 3.21,0.12 3.22,0.1 3.21,0.11 3.21,0.08 3.21,0.08 3.22,0.08 3.21,0.07 3.21,0.06 3.22,0.06 3.21,0.05 3.22,0.04 3.21,0.04 3.22,0.04 3.21,0.04 3.2,0.03 3.22,0.02 3.21,0.03 3.22,0.02 3.21,0.02 3.22,0.02 3.21,0.01 3.21,0.02 3.21,0.01 3.22,0.01 3.21,0.02 3.21,0.01 h 3.22 l 3.21,0.01 3.21,0.01 3.22,0.01 h 3.21 3.22 l 3.2,0.01 h 3.22 l 3.21,0.01 h 3.21 3.22 3.21 3.22 3.21 3.21 l 3.22,0.01 h 3.21 3.21 3.21 3.22 3.21 3.22 3.21 l 3.21,0.01 h 3.22 3.2 3.22 3.21 3.22 3.21 3.21 3.22 3.21 3.22 3.21 3.21 3.21 3.21 3.22 3.21 3.22 3.21 3.22 3.2 3.21 3.22 3.21 3.22 3.21 3.22 3.21 3.21 3.22 3.21 3.21 3.21 3.22 3.21 3.21 3.22 3.21 3.21 3.21 3.22 3.21 3.21 3.22 3.21 3.22 3.21 3.22 3.21 3.2 3.22 3.21 3.22 3.21 3.22 3.21 3.21 3.21 3.22 3.21 3.21 3.22 3.21 3.21 3.22 3.21 3.22 3.2 3.22 3.21 3.21 3.22 3.21 3.22 3.21 3.21 3.22 3.21 3.21 3.21 3.22 3.21 3.22 3.21 3.21 3.21 3.21 3.22 3.21 3.22 3.21 3.21 3.22 3.21 3.22 3.21 3.21 3.21 3.21 3.22 3.21 3.22 3.21 3.22 3.2 3.22 3.21 3.21 3.22 3.21 3.22 3.21 3.21 3.22 3.21 3.21 3.21 3.22 3.21 3.21 3.22 3.21 3.21 3.21 3.22 3.21 3.21 3.22 3.21 3.22 3.21 3.22 3.21 3.2 3.22 3.21 3.22 3.21 3.22 3.21 3.21 3.21 3.22 3.21 3.21 3.22 3.21 3.21 3.22 3.21 3.22 3.2 3.22 3.21 3.21 3.22 3.21 3.22 3.21 3.21 3.22 3.21 3.21 3.21 3.22 3.21 3.22 3.21 3.21 3.21 3.21 3.22 3.21 3.22 3.21 3.21 3.22 3.21 3.22 3.21 3.21 3.21 3.21 3.22 3.21 3.22 3.21 3.21 3.21 3.22 3.21 3.21 3.22 3.21 3.22 3.21 3.21 3.22 3.21 3.21 3.21 3.22 3.21 3.21 3.22 3.21 3.21 3.22 3.21 3.21 3.21 3.22 3.21 3.22 3.21 3.22 3.21 3.2 3.22 3.21 3.22 3.21 3.22 3.21 3.21 3.21 3.22 3.21 3.21 3.22 3.21 3.21 3.22 3.21 3.22 3.2 3.22 3.21 3.21 3.22 3.21 3.22 3.21 3.21 3.22 3.21 3.21 3.21 3.22 3.21 3.22 3.21 3.21 3.21 3.21 3.22 3.21 3.22 3.21"
         style="fill:none;stroke:#202f5a;stroke-width:20.0025;stroke-linecap:butt;stroke-linejoin:round;stroke-miterlimit:10;stroke-dasharray:none;stroke-opacity:1"
         id="path74" /><path
         d="m 592.5,345 h 1214.59 l 3.21,0.008 h 51.42 l 3.21,0.008 h 3.21 3.22 3.21 3.21 3.22 3.21 l 3.22,0.007 h 3.21 3.22 3.21 3.2 3.22 l 3.21,0.008 h 3.22 3.21 3.22 l 3.21,0.008 h 3.21 3.21 l 3.22,0.008 h 3.21 3.21 l 3.22,0.004 h 3.21 l 3.21,0.008 h 3.22 3.21 l 3.22,0.007 3.2,0.008 h 3.22 l 3.21,0.008 h 3.21 l 3.22,0.008 3.21,0.008 3.22,0.007 h 3.21 l 3.21,0.008 3.22,0.008 3.21,0.008 3.21,0.008 3.21,0.008 3.22,0.003 3.21,0.008 3.22,0.016 3.21,0.008 3.21,0.008 3.22,0.015 3.2,0.008 3.22,0.016 3.21,0.011 3.22,0.008 3.21,0.016 3.21,0.015 3.22,0.016 3.21,0.016 3.22,0.023 3.21,0.012 3.21,0.023 3.21,0.016 3.21,0.023 3.22,0.02 3.21,0.023 3.22,0.031 3.21,0.024 3.21,0.027 3.21,0.024 3.21,0.031 3.22,0.035 3.21,0.031 3.22,0.039 3.21,0.028 3.21,0.039 3.22,0.043 3.21,0.039 3.22,0.047 3.21,0.043 3.21,0.054 3.21,0.043 3.22,0.055 3.21,0.059 3.21,0.05 3.22,0.063 3.21,0.066 3.21,0.067 3.21,0.07 3.22,0.074 3.21,0.074 3.21,0.075 3.22,0.082 3.21,0.09 3.22,0.089 3.21,0.09 3.21,0.106 3.22,0.097 3.2,0.114 3.22,0.113 3.21,0.113 3.22,0.125 3.21,0.129 3.21,0.133 3.22,0.137 3.21,0.14 3.21,0.16 3.22,0.157 3.21,0.164 3.21,0.168 3.22,0.179 3.21,0.188 3.21,0.195 3.22,0.199 3.21,0.211 3.22,0.219 3.2,0.223 3.22,0.242 3.21,0.238 3.21,0.258 3.22,0.27 3.21,0.277 3.22,0.285 3.21,0.301 3.21,0.305 3.22,0.324 3.21,0.336 3.21,0.351 3.21,0.364 3.22,0.375 3.21,0.386 3.21,0.399 3.22,0.422 3.21,0.433 3.21,0.449 3.21,0.473 3.22,0.481 3.21,0.503 3.21,0.524 3.22,0.539 3.21,0.559 3.22,0.574 3.21,0.601 3.22,0.621 3.21,0.637 3.2,0.668 3.22,0.692 3.21,0.707 3.22,0.742 3.21,0.758 3.22,0.785 3.21,0.808 3.21,0.844 3.21,0.867 3.22,0.903 3.21,0.921 3.21,0.961 3.22,0.989 3.21,1.019 3.21,1.051 3.22,1.086 3.21,1.117 3.22,1.164 3.21,1.192 3.21,1.23 3.21,1.27 3.22,1.304 3.21,1.348 3.21,1.391 3.22,1.421 3.21,1.481 3.21,1.512 3.21,1.562 3.22,1.606 3.21,1.656 3.21,1.703 3.22,1.746 3.21,1.801 3.22,1.851 3.21,1.907 3.22,1.957 3.21,2.011 3.2,2.067 3.22,2.125 3.21,2.183 3.22,2.243 3.21,2.3 3.21,2.364 3.22,2.422 3.21,2.488 3.21,2.558 3.22,2.618 3.21,2.687 3.21,2.758 3.21,2.82 3.22,2.895 3.21,2.972 3.22,3.036 3.21,3.121 3.22,3.187 3.2,3.27 3.21,3.343 3.22,3.43 3.21,3.5 3.22,3.586 3.21,3.676 3.22,3.75 3.21,3.84 3.21,3.922 3.22,4.019 3.21,4.106 3.21,4.191 3.21,4.281 3.22,4.371 3.21,4.473 3.21,4.559 3.22,4.664 3.21,4.757 3.21,4.852 3.21,4.949 3.22,5.055 3.21,5.152 3.21,5.258 3.22,5.356 3.21,5.46 3.22,5.571 3.21,5.672 3.22,5.773 3.21,5.887 3.2,6 3.22,6.105 3.21,6.211 3.22,6.332 3.21,6.434 3.22,6.547 3.21,6.668 3.21,6.773 3.21,6.891 3.22,7.008 3.21,7.117 3.21,7.234 3.22,7.352 3.21,7.468 3.21,7.59 3.22,7.703 3.21,7.825 3.22,7.941 3.21,8.055 3.21,8.183 3.21,8.293 3.21,8.418 3.22,8.535 3.21,8.653 3.22,8.777 3.21,8.887 3.21,9.008 3.22,9.132 3.21,9.25 3.21,9.36 3.21,9.488 3.22,9.598 3.21,9.722 3.22,9.832 3.21,9.954 3.21,10.07 3.22,10.176 3.2,10.3 3.22,10.411 3.21,10.519 3.22,10.637 3.21,10.746 3.21,10.859 3.22,10.969 3.21,11.074 3.21,11.184 3.22,11.289 3.21,11.386 3.21,11.5 3.21,11.61 3.22,11.7 3.21,11.79 3.22,11.9 3.21,12 3.22,12.09 3.2,12.18 3.21,12.28 3.22,12.37 3.21,12.46 3.22,12.55 3.21,12.63 3.22,12.71 3.21,12.79 3.21,12.88 3.22,12.95 3.21,13.03 3.21,13.1 3.21,13.17 3.22,13.24 3.21,13.31 3.21,13.37 3.22,13.44 3.21,13.5 3.21,13.55 3.21,13.61 3.22,13.67 3.21,13.71 3.21,13.77 3.22,13.8 3.21,13.86 3.22,13.89 3.21,13.93 3.22,13.97 3.21,14 3.2,14.03 3.22,14.06 3.21,14.08 3.22,14.11 3.21,14.13 3.22,14.14 3.21,14.16 3.21,14.17 3.21,14.19 3.22,14.19 3.21,14.18 3.21,14.2 3.22,14.19 3.21,14.18 3.21,14.19 3.22,14.17 3.21,14.16 3.22,14.14 3.2,14.12 3.22,14.11 3.21,14.08 3.21,14.05 3.22,14.03 3.21,14 3.22,13.96 3.21,13.92 3.21,13.9 3.22,13.84 3.21,13.8 3.21,13.76 3.21,13.7 3.22,13.66 3.21,13.61 3.22,13.54 3.21,13.5 3.21,13.42 3.22,13.36 3.2,13.3 3.22,13.23 3.21,13.17 3.22,13.09 3.21,13.02 3.21,12.94 3.22,12.86 3.21,12.79 3.22,12.69 3.21,12.63 3.21,12.52 3.21,12.45 3.21,12.35 3.22,12.28 3.21,12.17 3.22,12.07 3.21,11.99 3.22,11.88 3.2,11.79 3.21,11.69 3.22,11.58 3.21,11.48 3.22,11.39 3.21,11.27 3.22,11.17 3.21,11.05 3.21,10.95 3.22,10.85 3.21,10.73 3.21,10.62 3.21,10.51 3.22,10.39 3.21,10.28 3.21,10.17 3.22,10.05 3.21,9.94 3.21,9.81 3.21,9.71 3.22,9.58 3.21,9.47 3.21,9.35 3.22,9.22 3.21,9.12 3.22,9 3.21,8.87 3.22,8.75 3.21,8.64 3.2,8.52 3.22,8.4 3.21,8.28 3.22,8.16 3.21,8.04 3.22,7.93 3.21,7.8 3.21,7.69 3.21,7.57 3.22,7.46 3.21,7.33 3.21,7.22 3.22,7.11 3.21,6.99 3.21,6.87 3.22,6.76 3.21,6.65 3.22,6.53 3.2,6.42 3.22,6.31 3.21,6.2 3.21,6.09 3.22,5.98 3.21,5.87 3.22,5.77 3.21,5.65 3.21,5.55 3.22,5.46 3.21,5.34 3.21,5.24 3.21,5.13 3.22,5.05 3.21,4.93 3.22,4.84 3.21,4.75 3.21,4.64 3.21,4.55 3.21,4.46 3.22,4.36 3.21,4.27 3.22,4.18 3.21,4.09 3.21,4 3.22,3.91 3.21,3.83 3.22,3.74 3.21,3.66 3.21,3.58 3.21,3.49 3.21,3.42 3.22,3.33 3.21,3.26 3.22,3.18 3.21,3.1 3.22,3.03 3.2,2.96 3.22,2.89 3.21,2.81 3.21,2.74 3.22,2.68 3.21,2.61 3.22,2.55 3.21,2.47 3.21,2.42 3.22,2.36 3.21,2.29 3.21,2.23 3.21,2.18 3.22,2.11 3.21,2.07 3.21,2 3.22,1.95 3.21,1.9 3.21,1.84 3.21,1.79 3.22,1.75 3.21,1.7 3.21,1.64 3.22,1.61 3.21,1.55 3.22,1.5 3.21,1.48 3.22,1.42 3.21,1.38 3.2,1.34 3.22,1.3 3.21,1.27 3.22,1.22 3.21,1.18 3.22,1.16 3.21,1.12 3.21,1.08 3.21,1.05 3.22,1.01 3.21,0.98 3.21,0.96 3.22,0.92 3.21,0.89 3.21,0.87 3.22,0.83 3.21,0.81 3.22,0.78 3.2,0.76 3.22,0.74 3.21,0.7 3.21,0.69 3.22,0.66 3.21,0.64 3.22,0.61 3.21,0.6 3.21,0.58 3.22,0.56 3.21,0.53 3.21,0.52 3.21,0.5 3.22,0.48 3.21,0.46 3.22,0.45 3.21,0.44 3.21,0.41 3.21,0.41 3.21,0.38 3.22,0.37 3.21,0.36 3.22,0.35 3.21,0.34 3.21,0.31 3.22,0.32 3.21,0.29 3.22,0.28 3.21,0.28 3.21,0.26 3.21,0.26 3.21,0.25 3.22,0.23 3.21,0.22 3.22,0.22 3.21,0.21 3.21,0.2 3.21,0.2 3.22,0.18 3.21,0.18 3.21,0.17 3.22,0.16 3.21,0.16 3.22,0.14 3.21,0.16 3.21,0.13 3.22,0.14 3.21,0.12 3.21,0.12 3.21,0.11 3.22,0.12 3.21,0.11 3.21,0.1 3.22,0.1 3.21,0.09 3.21,0.09 3.22,0.09 3.21,0.08 3.21,0.08 3.21,0.07 3.22,0.07 3.21,0.08 3.22,0.06 3.21,0.06 3.22,0.07 3.21,0.05 3.2,0.06 3.22,0.05 3.21,0.04 3.22,0.06 3.21,0.04 3.22,0.05 3.21,0.04 3.21,0.03 3.21,0.04 3.22,0.04 3.21,0.04 3.21,0.03 3.22,0.02 3.21,0.04 3.21,0.03 3.22,0.02 3.21,0.03 3.22,0.02 3.2,0.02 3.22,0.02 3.21,0.03 3.21,0.02 3.22,0.02 3.21,0.02 3.22,0.01 3.21,0.02 3.21,0.01 3.22,0.02 3.21,0.01 3.21,0.02 h 3.21 l 3.22,0.02 3.21,0.01 3.22,0.01 3.21,0.01 3.21,0.02 h 3.21 l 3.21,0.01 3.22,0.01 h 3.21 l 3.22,0.01 3.21,0.01"
         style="fill:none;stroke:#414d72;stroke-width:20.0025;stroke-linecap:butt;stroke-linejoin:round;stroke-miterlimit:10;stroke-dasharray:none;stroke-opacity:1"
         id="path76" /><path
         d="m 592.5,345.27 3.211,0.007 3.215,0.008 3.211,0.016 3.218,0.008 3.211,0.007 3.215,0.008 3.211,0.008 3.211,0.004 3.219,0.008 3.207,0.015 3.219,0.008 3.211,0.008 3.214,0.016 3.211,0.007 3.211,0.016 3.219,0.008 3.207,0.012 3.219,0.007 3.211,0.016 3.215,0.008 3.211,0.015 3.211,0.016 3.218,0.008 3.207,0.016 3.219,0.011 3.211,0.016 3.219,0.016 3.207,0.015 3.211,0.016 3.218,0.015 3.211,0.012 3.215,0.016 3.211,0.015 3.219,0.024 3.207,0.015 3.211,0.016 3.219,0.02 3.211,0.015 3.214,0.024 3.211,0.023 3.219,0.012 3.207,0.023 3.211,0.024 3.219,0.023 3.211,0.02 3.215,0.023 3.211,0.024 3.218,0.023 3.211,0.023 3.207,0.028 3.219,0.023 3.211,0.024 3.215,0.027 3.211,0.031 3.218,0.024 3.211,0.031 3.207,0.027 3.219,0.031 3.211,0.032 3.219,0.027 3.207,0.039 3.219,0.031 3.211,0.036 3.207,0.031 3.218,0.035 3.211,0.039 3.219,0.039 3.207,0.035 3.219,0.039 3.211,0.035 3.211,0.04 3.215,0.046 3.211,0.036 3.218,0.046 3.207,0.043 3.219,0.047 3.211,0.043 3.211,0.047 3.215,0.051 3.211,0.047 3.218,0.051 3.211,0.054 3.215,0.051 3.211,0.051 3.211,0.054 3.215,0.059 3.211,0.055 3.219,0.058 3.211,0.059 3.214,0.062 3.211,0.059 3.211,0.066 3.215,0.071 3.211,0.058 3.219,0.067 3.211,0.078 3.215,0.066 3.211,0.075 3.21,0.066 3.219,0.078 3.207,0.082 3.219,0.074 3.211,0.082 3.215,0.082 3.211,0.082 3.211,0.082 3.218,0.09 3.207,0.09 3.219,0.09 3.211,0.09 3.219,0.097 3.207,0.09 3.211,0.098 3.219,0.105 3.207,0.098 3.218,0.106 3.211,0.113 3.219,0.105 3.207,0.114 3.211,0.109 3.219,0.113 3.211,0.121 3.215,0.121 3.211,0.118 3.218,0.129 3.207,0.128 3.207,0.125 3.22,0.137 3.21,0.133 3.22,0.137 3.21,0.14 3.22,0.145 3.21,0.14 3.21,0.153 3.22,0.148 3.21,0.16 3.21,0.157 3.21,0.156 3.22,0.164 3.21,0.168 3.21,0.172 3.22,0.172 3.21,0.172 3.21,0.179 3.21,0.188 3.22,0.187 3.21,0.188 3.21,0.195 3.22,0.195 3.21,0.203 3.22,0.204 3.21,0.207 3.22,0.211 3.21,0.218 3.21,0.219 3.21,0.223 3.21,0.234 3.22,0.231 3.21,0.234 3.22,0.238 3.21,0.25 3.21,0.246 3.21,0.254 3.21,0.262 3.22,0.266 3.21,0.269 3.22,0.27 3.21,0.277 3.21,0.285 3.22,0.285 3.21,0.293 3.22,0.301 3.21,0.297 3.21,0.316 3.21,0.309 3.21,0.32 3.22,0.324 3.21,0.329 3.22,0.339 3.21,0.344 3.21,0.344 3.21,0.355 3.22,0.36 3.21,0.367 3.21,0.375 3.22,0.375 3.21,0.391 3.22,0.386 3.21,0.399 3.21,0.406 3.22,0.414 3.2,0.41 3.22,0.43 3.21,0.433 3.22,0.434 3.21,0.449 3.21,0.453 3.22,0.465 3.21,0.465 3.21,0.481 3.22,0.48 3.21,0.492 3.21,0.496 3.21,0.508 3.22,0.52 3.21,0.523 3.22,0.535 3.21,0.539 3.22,0.547 3.2,0.555 3.21,0.57 3.22,0.578 3.21,0.586 3.22,0.59 3.21,0.602 3.22,0.613 3.21,0.625 3.21,0.629 3.22,0.637 3.21,0.652 3.21,0.66 3.21,0.668 3.22,0.684 3.21,0.691 3.21,0.703 3.22,0.711 3.21,0.723 3.21,0.734 3.21,0.742 3.22,0.758 3.21,0.766 3.21,0.769 3.22,0.797 3.21,0.797 3.22,0.809 3.21,0.824 3.22,0.84 3.21,0.847 3.2,0.856 3.22,0.871 3.21,0.883 3.22,0.902 3.21,0.906 3.22,0.922 3.21,0.938 3.21,0.945 3.21,0.969 3.22,0.972 3.21,0.985 3.21,1.004 3.22,1.011 3.21,1.036 3.21,1.043 3.22,1.058 3.21,1.07 3.22,1.09 3.21,1.102 3.21,1.109 3.21,1.133 3.21,1.148 3.22,1.161 3.21,1.179 3.22,1.192 3.21,1.207 3.21,1.222 3.21,1.239 3.22,1.261 3.21,1.266 3.21,1.289 3.22,1.305 3.21,1.32 3.22,1.344 3.21,1.351 3.21,1.372 3.22,1.394 3.2,1.402 3.22,1.426 3.21,1.449 3.22,1.454 3.21,1.484 3.21,1.492 3.22,1.516 3.21,1.539 3.21,1.543 3.22,1.574 3.21,1.59 3.21,1.605 3.21,1.629 3.22,1.649 3.21,1.668 3.22,1.687 3.21,1.707 3.22,1.727 3.2,1.746 3.21,1.769 3.22,1.785 3.21,1.809 3.22,1.832 3.21,1.844 3.22,1.875 3.21,1.89 3.21,1.911 3.22,1.937 3.21,1.957 3.21,1.981 3.21,2 3.22,2.019 3.21,2.047 3.21,2.063 3.22,2.093 3.21,2.114 3.21,2.128 3.21,2.161 3.22,2.183 3.21,2.207 3.21,2.227 3.22,2.25 3.21,2.273 3.22,2.293 3.21,2.324 3.22,2.348 3.21,2.371 3.2,2.391 3.22,2.426 3.21,2.445 3.22,2.465 3.21,2.5 3.22,2.511 3.21,2.551 3.21,2.563 3.21,2.597 3.22,2.618 3.21,2.644 3.21,2.672 3.22,2.699 3.21,2.723 3.21,2.754 3.22,2.773 3.21,2.797 3.22,2.836 3.2,2.852 3.22,2.878 3.21,2.911 3.21,2.937 3.22,2.965 3.21,2.984 3.22,3.024 3.21,3.035 3.21,3.078 3.22,3.098 3.21,3.125 3.21,3.16 3.21,3.18 3.22,3.207 3.21,3.242 3.22,3.262 3.21,3.3 3.21,3.321 3.22,3.355 3.2,3.375 3.22,3.41 3.21,3.438 3.22,3.465 3.21,3.492 3.21,3.519 3.22,3.555 3.21,3.578 3.21,3.613 3.22,3.637 3.21,3.668 3.21,3.699 3.21,3.727 3.22,3.75 3.21,3.789 3.22,3.816 3.21,3.84 3.22,3.871 3.2,3.907 3.21,3.929 3.22,3.961 3.21,3.988 3.22,4.028 3.21,4.051 3.22,4.082 3.21,4.109 3.21,4.141 3.22,4.16 3.21,4.199 3.21,4.23 3.21,4.262 3.22,4.289 3.21,4.313 3.21,4.351 3.22,4.379 3.21,4.403 3.21,4.441 3.21,4.469 3.22,4.492 3.21,4.531 3.21,4.551 3.22,4.582 3.21,4.621 3.22,4.645 3.21,4.671 3.22,4.704 3.21,4.738 3.2,4.762 3.22,4.793 3.21,4.816 3.22,4.851 3.21,4.883 3.22,4.907 3.21,4.941 3.21,4.965 3.21,4.996 3.22,5.023 3.21,5.055 3.21,5.086 3.22,5.105 3.21,5.145 3.21,5.168 3.22,5.199 3.21,5.219 3.22,5.258 3.2,5.281 3.22,5.309 3.21,5.339 3.21,5.364 3.22,5.39 3.21,5.426 3.22,5.445 3.21,5.473 3.21,5.504 3.22,5.527 3.21,5.559 3.21,5.582 3.21,5.609 3.22,5.641 3.21,5.66 3.22,5.695 3.21,5.711 3.21,5.74 3.22,5.77 3.2,5.79 3.22,5.82 3.21,5.84 3.22,5.87 3.21,5.89 3.21,5.92 3.22,5.95 3.21,5.96 3.22,5.99 3.21,6.02 3.21,6.03 3.21,6.07 3.21,6.08 3.22,6.12 3.21,6.12 3.22,6.16 3.21,6.18 3.21,6.2 3.21,6.22 3.21,6.24 3.22,6.27 3.21,6.29 3.22,6.3 3.21,6.33 3.21,6.35 3.22,6.38 3.21,6.39 3.22,6.41 3.21,6.43 3.21,6.45 3.21,6.47 3.22,6.49 3.21,6.51 3.21,6.52 3.22,6.55 3.21,6.56 3.21,6.59 3.21,6.59 3.22,6.62 3.21,6.63 3.21,6.65 3.22,6.67 3.21,6.68 3.22,6.7 3.21,6.71 3.21,6.73 3.22,6.75 3.2,6.75 3.22,6.78 3.21,6.79 3.22,6.8 3.21,6.81 3.21,6.83 3.22,6.84 3.21,6.85 3.21,6.87 3.22,6.88 3.21,6.89 3.21,6.9 3.22,6.91 3.21,6.92 3.21,6.93 3.22,6.95 3.21,6.95 3.22,6.97 3.2,6.97 3.22,6.98 3.21,6.99 3.21,7 3.22,7.01 3.21,7.01 3.22,7.02 3.21,7.03 3.21,7.03 3.22,7.05 3.21,7.04 3.21,7.05 3.21,7.06 3.22,7.06 3.21,7.07 3.21,7.07 3.22,7.08 3.21,7.07 3.21,7.09 3.21,7.08 3.22,7.09 3.21,7.09 3.21,7.09 3.22,7.1 3.21,7.09 3.22,7.09 3.21,7.1 3.22,7.1 3.21,7.1 3.2,7.09 3.22,7.1 3.21,7.09 3.22,7.09 3.21,7.1 3.22,7.08 3.21,7.09 3.21,7.08 3.21,7.08 3.22,7.07 3.21,7.08 3.21,7.07 3.22,7.06 3.21,7.06 3.21,7.06 3.22,7.04 3.21,7.04 3.22,7.04 3.21,7.03 3.21,7.02 3.21,7.02 3.22,7.01 3.21,7 3.21,6.99 3.22,6.99 3.21,6.97 3.21,6.97 3.21,6.95 3.22,6.95 3.21,6.94 3.21,6.92 3.22,6.92 3.21,6.9 3.22,6.9 3.21,6.88 3.22,6.86 3.21,6.87 3.2,6.84 3.22,6.83 3.21,6.82 3.22,6.81 3.21,6.79 3.21,6.77 3.22,6.77 3.21,6.75 3.21,6.73 3.22,6.72 3.21,6.7 3.21,6.69 3.21,6.67 3.22,6.65 3.21,6.65 3.22,6.61 3.21,6.61 3.22,6.59 3.2,6.56 3.21,6.55 3.22,6.54 3.21,6.51 3.22,6.5 3.21,6.48 3.22,6.45 3.21,6.44 3.21,6.41 3.22,6.41 3.21,6.37 3.21,6.36 3.21,6.33 3.22,6.32 3.21,6.29 3.21,6.28 3.22,6.24 3.21,6.24 3.21,6.2 3.21,6.19 3.22,6.16 3.21,6.14 3.21,6.12 3.22,6.09 3.21,6.07 3.22,6.05 3.21,6.02 3.22,5.99 3.21,5.98 3.2,5.95 3.22,5.92 3.21,5.9 3.22,5.89 3.21,5.84 3.22,5.83 3.21,5.8 3.21,5.78 3.21,5.75 3.22,5.72 3.21,5.69 3.21,5.67 3.22,5.65 3.21,5.62 3.21,5.59 3.22,5.57 3.21,5.53 3.22,5.51 3.21,5.49 3.21,5.45 3.21,5.43 3.21,5.41 3.22,5.37 3.21,5.35 3.22,5.31 3.21,5.29 3.21,5.26 3.22,5.24 3.21,5.21 3.21,5.17 3.21,5.15 3.22,5.12 3.21,5.09 3.22,5.06 3.21,5.03 3.21,5.02 3.22,4.97 3.2,4.95 3.22,4.92 3.21,4.89 3.22,4.86 3.21,4.83 3.21,4.8 3.22,4.77 3.21,4.74 3.21,4.72 3.22,4.68 3.21,4.65 3.21,4.62 3.21,4.6 3.22,4.56 3.21,4.54 3.22,4.51 3.21,4.47 3.22,4.45 3.2,4.41 3.21,4.39 3.22,4.35 3.21,4.33 3.22,4.3 3.21,4.27 3.22,4.24 3.21,4.2 3.21,4.19 3.22,4.15 3.21,4.11 3.21,4.09 3.21,4.06 3.22,4.03 3.21,4 3.21,3.98 3.22,3.93 3.21,3.92 3.21,3.88 3.21,3.85 3.22,3.83 3.21,3.79 3.21,3.76 3.22,3.74 3.21,3.71 3.22,3.67 3.21,3.65 3.22,3.62 3.21,3.58 3.2,3.57 3.22,3.53 3.21,3.5 3.22,3.47 3.21,3.45 3.22,3.42 3.21,3.39 3.21,3.36 3.21,3.32 3.22,3.31 3.21,3.27 3.21,3.25 3.22,3.23 3.21,3.18 3.21,3.17 3.22,3.13 3.21,3.11 3.22,3.08 3.2,3.05 3.22,3.03 3.21,3 3.21,2.96 3.22,2.95 3.21,2.92 3.22,2.89 3.21,2.86 3.21,2.84 3.22,2.81 3.21,2.78 3.21,2.76 3.21,2.73 3.22,2.7 3.21,2.69 3.22,2.65 3.21,2.63 3.21,2.6 3.22,2.58 3.2,2.55 3.22,2.53 3.21,2.49 3.22,2.48 3.21,2.45 3.21,2.43 3.22,2.4 3.21,2.38 3.22,2.36 3.21,2.33 3.21,2.3 3.21,2.29 3.21,2.26 3.22,2.23 3.21,2.21 3.22,2.19 3.21,2.16 3.22,2.15 3.2,2.11 3.21,2.1 3.22,2.07 3.21,2.06 3.22,2.02 3.21,2.01 3.22,1.98 3.21,1.97 3.21,1.94 3.22,1.92 3.21,1.9 3.21,1.88 3.21,1.85 3.22,1.84 3.21,1.82 3.21,1.79 3.22,1.77 3.21,1.75 3.21,1.73 3.21,1.71 3.22,1.7 3.21,1.67 3.21,1.66 3.22,1.63 3.21,1.62 3.22,1.6 3.21,1.57 3.22,1.56 3.21,1.54 3.2,1.52 3.22,1.5 3.21,1.49 3.22,1.46 3.21,1.45 3.22,1.43 3.21,1.41 3.21,1.39 3.21,1.38 3.22,1.36 3.21,1.35 3.21,1.33 3.22,1.3 3.21,1.3 3.21,1.28 3.22,1.25 3.21,1.25 3.22,1.23 3.2,1.21 3.22,1.2 3.21,1.18 3.21,1.17 3.22,1.15 3.21,1.13 3.22,1.12 3.21,1.11 3.21,1.09 3.22,1.08 3.21,1.06 3.21,1.04 3.21,1.04 3.22,1.02 3.21,1.01 3.22,0.99 3.21,0.98 3.21,0.96 3.21,0.96 3.21,0.93 3.22,0.93 3.21,0.92 3.22,0.9 3.21,0.88 3.21,0.88 3.22,0.87 3.21,0.84 3.22,0.84 3.21,0.84 3.21,0.8 3.21,0.82 3.21,0.78 3.22,0.78 3.21,0.78 3.22,0.75 3.21,0.75 3.22,0.74 3.2,0.73 3.22,0.71 3.21,0.7 3.21,0.69 3.22,0.68 3.21,0.68 3.22,0.67 3.21,0.65 3.21,0.64 3.22,0.63 3.21,0.64 3.21,0.61 3.21,0.6 3.22,0.6 3.21,0.59 3.21,0.57 3.22,0.57 3.21,0.57 3.21,0.55 3.21,0.54 3.22,0.53 3.21,0.54 3.21,0.51 3.22,0.51 3.21,0.5 3.22,0.5 3.21,0.48 3.22,0.48 3.21,0.47 3.2,0.47 3.22,0.46 3.21,0.44 3.22,0.44 3.21,0.44 3.22,0.42 3.21,0.42 3.21,0.42 3.21,0.41 3.22,0.4 3.21,0.39 3.21,0.39 3.22,0.38 3.21,0.37 3.21,0.37 3.22,0.36 3.21,0.35 3.22,0.35 3.2,0.35 3.22,0.34 3.21,0.33 3.21,0.33 3.22,0.31 3.21,0.32 3.22,0.31 3.21,0.31 3.21,0.3 3.22,0.29 3.21,0.29 3.21,0.28 3.21,0.29 3.22,0.27 3.21,0.27 3.22,0.26 3.21,0.26 3.21,0.26 3.21,0.25 3.21,0.25 3.22,0.24 3.21,0.24 3.22,0.23 3.21,0.23 3.21,0.22 3.22,0.23 3.21,0.22 3.22,0.2 3.21,0.22 3.21,0.21 3.21,0.2 3.21,0.19 3.22,0.2 3.21,0.19 3.22,0.19 3.21,0.18 3.21,0.18 3.21,0.18 3.22,0.17 3.21,0.18 3.21,0.16 3.22,0.16 3.21,0.17 3.22,0.16 3.21,0.15 3.21,0.16 3.22,0.14 3.21,0.15 3.21,0.14 3.21,0.14 3.22,0.15 3.21,0.13 3.21,0.13 3.22,0.13 3.21,0.13 3.21,0.13 3.22,0.12 3.21,0.12 3.21,0.12 3.21,0.11 3.22,0.12 3.21,0.11 3.22,0.11 3.21,0.1 3.22,0.11 3.21,0.1 3.2,0.1 3.22,0.11 3.21,0.09 3.22,0.09 3.21,0.1 3.22,0.09 3.21,0.09 3.21,0.08 3.21,0.09 3.22,0.08 3.21,0.09 3.21,0.08 3.22,0.08 3.21,0.07 3.21,0.07 3.22,0.08 3.21,0.07 3.22,0.07 3.2,0.08 3.22,0.06 3.21,0.07 3.21,0.06 3.22,0.07 3.21,0.06 3.22,0.06 3.21,0.06 3.21,0.06 3.22,0.06 3.21,0.05 3.21,0.06 3.21,0.05 3.22,0.06 3.21,0.05 3.22,0.05 3.21,0.05 3.21,0.05 3.21,0.05 3.21,0.04 3.22,0.05 3.21,0.04 3.22,0.04 3.21,0.04"
         style="fill:none;stroke:#697290;stroke-width:20.0025;stroke-linecap:butt;stroke-linejoin:round;stroke-miterlimit:10;stroke-dasharray:none;stroke-opacity:1"
         id="path78" /></g><g
       transform="matrix(1.85249,0,0,-1.85249,147.86771,25.676986)"
       ns9:version="1.8.2"
       ns9:texconverter="pdflatex"
       ns9:pdfconverter="inkscape"
       ns9:text="Severity $\\alpha$"
       ns9:preamble="/ul/daby/.config/inkscape/extensions/textext/Daby_packages.tex"
       ns9:scale="1.852498314698821"
       ns9:alignment="middle center"
       ns9:stroke-to-path="0"
       ns9:inkscapeversion="1.0.2"
       ns9:jacobian_sqrt="1.85249"
       id="g1011"><defs
   id="id-e1f8a90e-a74b-4704-a11b-3e993e1b769a">
    <g
   id="id-2c93b202-a10b-4fae-8bb0-b1026b5015d9">
      <symbol
   overflow="visible"
   id="id-84888275-f8f4-4c1c-ae51-cf75a3fc6bda">
        <path
   style="stroke:none;stroke-width:0"
   d=""
   id="id-7bd17079-19ba-4a28-92eb-a3e2bf175c46" />
      </symbol>
      <symbol
   overflow="visible"
   id="id-6f49ab5c-5f8f-4348-8a3f-1f2b1eec8294">
        <path
   style="stroke:none;stroke-width:0"
   d="m 4.640625,-6.640625 c -0.546875,-0.328125 -1.109375,-0.5 -1.828125,-0.5 -1.390625,0 -2.25,0.984375 -2.25,1.96875 0,0.421875 0.140625,0.84375 0.53125,1.265625 0.421875,0.453125 0.859375,0.5625 1.453125,0.703125 0.84375,0.21875 0.9375,0.25 1.21875,0.484375 0.203125,0.171875 0.421875,0.5 0.421875,0.9375 0,0.65625 -0.546875,1.3125 -1.453125,1.3125 -0.40625,0 -1.3125,-0.09375 -2.140625,-0.8125 l -0.15625,0.8125 c 0.875,0.546875 1.671875,0.6875 2.296875,0.6875 1.328125,0 2.234375,-1 2.234375,-2.109375 0,-0.640625 -0.296875,-1.125 -0.515625,-1.359375 C 3.984375,-3.75 3.65625,-3.84375 2.734375,-4.0625 2.15625,-4.203125 2,-4.25 1.6875,-4.5 1.625,-4.5625 1.34375,-4.859375 1.34375,-5.296875 c 0,-0.578125 0.546875,-1.1875 1.453125,-1.1875 0.84375,0 1.3125,0.328125 1.6875,0.640625 z m 0,0"
   id="id-3926e20b-42e9-4b07-b29b-38b8e516d5d6" />
      </symbol>
      <symbol
   overflow="visible"
   id="id-78c0a60b-3684-45f3-ab85-006ca64b3c2b">
        <path
   style="stroke:none;stroke-width:0"
   d="M 4.125,-2.1875 C 4.125,-2.515625 4.109375,-3.265625 3.734375,-3.875 3.3125,-4.484375 2.71875,-4.59375 2.359375,-4.59375 1.25,-4.59375 0.34375,-3.53125 0.34375,-2.25 c 0,1.3125 0.96875,2.359375 2.15625,2.359375 0.625,0 1.203125,-0.234375 1.59375,-0.515625 L 4.03125,-1.0625 C 3.40625,-0.53125 2.734375,-0.5 2.515625,-0.5 1.71875,-0.5 1.078125,-1.203125 1.046875,-2.1875 Z M 1.09375,-2.734375 c 0.15625,-0.75 0.6875,-1.25 1.265625,-1.25 0.515625,0 1.0625,0.328125 1.203125,1.25 z m 0,0"
   id="id-d4c96bb8-571c-41ba-a30e-084762f22e55" />
      </symbol>
      <symbol
   overflow="visible"
   id="id-33ac0edb-149e-453a-b816-963a0f9a7f0e">
        <path
   style="stroke:none;stroke-width:0"
   d="m 4.453125,-4.421875 h -0.75 l -0.796875,2.0625 C 2.703125,-1.796875 2.390625,-1 2.3125,-0.53125 H 2.296875 C 2.25,-0.890625 1.984375,-1.578125 1.890625,-1.84375 L 0.921875,-4.421875 H 0.140625 L 1.859375,0 h 0.875 z m 0,0"
   id="id-b3f0deed-0233-46bf-9c44-116d3fe1ea98" />
      </symbol>
      <symbol
   overflow="visible"
   id="id-b43361a2-5588-4500-a827-9db0f42d5d8c">
        <path
   style="stroke:none;stroke-width:0"
   d="M 1.5625,-2.140625 C 1.5625,-3.125 2.28125,-3.84375 3.265625,-3.875 v -0.65625 c -0.890625,0 -1.4375,0.5 -1.75,0.953125 v -0.90625 H 0.8125 V 0 h 0.75 z m 0,0"
   id="id-e8f7bd73-1d7e-47dc-8a90-a22322585051" />
      </symbol>
      <symbol
   overflow="visible"
   id="id-11baff5e-6187-425e-ac7c-9947ce3960ba">
        <path
   style="stroke:none;stroke-width:0"
   d="M 1.625,-6.78125 H 0.734375 v 0.890625 H 1.625 Z m -0.0625,2.359375 h -0.75 V 0 h 0.75 z m 0,0"
   id="id-6ec5bf77-ba08-4bdd-b563-74bccde88017" />
      </symbol>
      <symbol
   overflow="visible"
   id="id-a2d5b067-ed54-42b2-b2b8-c1ecf70eaf2b">
        <path
   style="stroke:none;stroke-width:0"
   d="M 1.75,-3.84375 H 3.15625 V -4.421875 H 1.75 V -5.6875 H 1.0625 v 1.265625 h -0.875 v 0.578125 h 0.84375 v 2.65625 c 0,0.59375 0.140625,1.296875 0.828125,1.296875 0.6875,0 1.203125,-0.25 1.453125,-0.375 L 3.15625,-0.859375 C 2.890625,-0.640625 2.578125,-0.53125 2.25,-0.53125 c -0.359375,0 -0.5,-0.296875 -0.5,-0.828125 z m 0,0"
   id="id-744ac922-20fb-4deb-8b17-c501a534d8cb" />
      </symbol>
      <symbol
   overflow="visible"
   id="id-2fc50f8c-3dc5-48c2-a0c3-d651a1a06020">
        <path
   style="stroke:none;stroke-width:0"
   d="m 4.453125,-4.421875 h -0.75 C 2.40625,-1.25 2.375,-0.796875 2.375,-0.5625 H 2.359375 C 2.296875,-1.234375 1.5,-3.09375 1.46875,-3.1875 L 0.921875,-4.421875 H 0.140625 L 2.078125,0 C 1.953125,0.3125 1.75,0.8125 1.71875,0.890625 1.453125,1.46875 1.28125,1.46875 1.140625,1.46875 0.984375,1.46875 0.671875,1.4375 0.375,1.3125 l 0.046875,0.65625 c 0.21875,0.046875 0.5,0.078125 0.71875,0.078125 0.359375,0 0.71875,-0.125 1.125,-1.140625 z m 0,0"
   id="id-57bdf4aa-23ae-43be-bc8a-45fb13352132" />
      </symbol>
      <symbol
   overflow="visible"
   id="id-ba22a06b-983a-4489-8f16-2e83b2f7dd2d">
        <path
   style="stroke:none;stroke-width:0"
   d=""
   id="id-d13111d9-bf75-4e77-bfc0-d1f511552e47" />
      </symbol>
      <symbol
   overflow="visible"
   id="id-cd6047c4-6f2c-4656-be27-e46199f26794">
        <path
   style="stroke:none;stroke-width:0"
   d="m 4.75,-2.359375 c 0,-1.5625 -0.921875,-2.046875 -1.65625,-2.046875 -1.375,0 -2.6875,1.421875 -2.6875,2.828125 0,0.9375 0.59375,1.6875 1.625,1.6875 0.625,0 1.34375,-0.234375 2.09375,-0.84375 0.125,0.53125 0.453125,0.84375 0.90625,0.84375 0.53125,0 0.84375,-0.546875 0.84375,-0.703125 0,-0.078125 -0.0625,-0.109375 -0.125,-0.109375 -0.0625,0 -0.09375,0.03125 -0.125,0.109375 -0.1875,0.484375 -0.546875,0.484375 -0.5625,0.484375 -0.3125,0 -0.3125,-0.78125 -0.3125,-1.015625 0,-0.203125 0,-0.234375 0.109375,-0.34375 C 5.796875,-2.65625 6,-3.8125 6,-3.8125 6,-3.84375 5.984375,-3.921875 5.875,-3.921875 c -0.09375,0 -0.09375,0.03125 -0.140625,0.21875 -0.1875,0.625 -0.515625,1.375 -0.984375,1.96875 z m -0.65625,1.375 c -0.890625,0.765625 -1.65625,0.875 -2.046875,0.875 -0.59375,0 -0.90625,-0.453125 -0.90625,-1.09375 0,-0.484375 0.265625,-1.5625 0.578125,-2.0625 C 2.1875,-4 2.734375,-4.1875 3.078125,-4.1875 c 0.984375,0 0.984375,1.3125 0.984375,2.078125 0,0.375 0,0.953125 0.03125,1.125 z m 0,0"
   id="id-7646a915-4b0f-412b-bf74-d7d40ff05ca9" />
      </symbol>
    </g>
  </defs>
  <g
   id="id-f4db871a-76e3-4b64-9b87-36aae30f169d"
   transform="translate(-149.15,-127.624)">
    <g
   style="fill:#000000;fill-opacity:1"
   id="id-16bd1da2-241f-4caa-a304-ca7030f01d94">
      <g
   transform="translate(148.712,134.765)"
   id="g981"><path
   style="stroke:none;stroke-width:0"
   d="m 4.640625,-6.640625 c -0.546875,-0.328125 -1.109375,-0.5 -1.828125,-0.5 -1.390625,0 -2.25,0.984375 -2.25,1.96875 0,0.421875 0.140625,0.84375 0.53125,1.265625 0.421875,0.453125 0.859375,0.5625 1.453125,0.703125 0.84375,0.21875 0.9375,0.25 1.21875,0.484375 0.203125,0.171875 0.421875,0.5 0.421875,0.9375 0,0.65625 -0.546875,1.3125 -1.453125,1.3125 -0.40625,0 -1.3125,-0.09375 -2.140625,-0.8125 l -0.15625,0.8125 c 0.875,0.546875 1.671875,0.6875 2.296875,0.6875 1.328125,0 2.234375,-1 2.234375,-2.109375 0,-0.640625 -0.296875,-1.125 -0.515625,-1.359375 C 3.984375,-3.75 3.65625,-3.84375 2.734375,-4.0625 2.15625,-4.203125 2,-4.25 1.6875,-4.5 1.625,-4.5625 1.34375,-4.859375 1.34375,-5.296875 c 0,-0.578125 0.546875,-1.1875 1.453125,-1.1875 0.84375,0 1.3125,0.328125 1.6875,0.640625 z m 0,0"
   id="id-cca19a52-7118-4e44-918a-5755e479d04d" />
      </g><g
   transform="translate(154.247,134.765)"
   id="g984"><path
   style="stroke:none;stroke-width:0"
   d="M 4.125,-2.1875 C 4.125,-2.515625 4.109375,-3.265625 3.734375,-3.875 3.3125,-4.484375 2.71875,-4.59375 2.359375,-4.59375 1.25,-4.59375 0.34375,-3.53125 0.34375,-2.25 c 0,1.3125 0.96875,2.359375 2.15625,2.359375 0.625,0 1.203125,-0.234375 1.59375,-0.515625 L 4.03125,-1.0625 C 3.40625,-0.53125 2.734375,-0.5 2.515625,-0.5 1.71875,-0.5 1.078125,-1.203125 1.046875,-2.1875 Z M 1.09375,-2.734375 c 0.15625,-0.75 0.6875,-1.25 1.265625,-1.25 0.515625,0 1.0625,0.328125 1.203125,1.25 z m 0,0"
   id="id-6d84bcc9-3c2f-4ed2-84c0-909fafb1e182" />
      </g><g
   transform="translate(158.675,134.765)"
   id="g987"><path
   style="stroke:none;stroke-width:0"
   d="m 4.453125,-4.421875 h -0.75 l -0.796875,2.0625 C 2.703125,-1.796875 2.390625,-1 2.3125,-0.53125 H 2.296875 C 2.25,-0.890625 1.984375,-1.578125 1.890625,-1.84375 L 0.921875,-4.421875 H 0.140625 L 1.859375,0 h 0.875 z m 0,0"
   id="id-87c94075-12bc-4e28-b43a-1260164131a0" />
      </g><g
   transform="translate(163.268,134.765)"
   id="g990"><path
   style="stroke:none;stroke-width:0"
   d="M 4.125,-2.1875 C 4.125,-2.515625 4.109375,-3.265625 3.734375,-3.875 3.3125,-4.484375 2.71875,-4.59375 2.359375,-4.59375 1.25,-4.59375 0.34375,-3.53125 0.34375,-2.25 c 0,1.3125 0.96875,2.359375 2.15625,2.359375 0.625,0 1.203125,-0.234375 1.59375,-0.515625 L 4.03125,-1.0625 C 3.40625,-0.53125 2.734375,-0.5 2.515625,-0.5 1.71875,-0.5 1.078125,-1.203125 1.046875,-2.1875 Z M 1.09375,-2.734375 c 0.15625,-0.75 0.6875,-1.25 1.265625,-1.25 0.515625,0 1.0625,0.328125 1.203125,1.25 z m 0,0"
   id="id-9a071d7d-42fb-4aa7-ba2c-896167b887f0" />
      </g><g
   transform="translate(167.696,134.765)"
   id="g993"><path
   style="stroke:none;stroke-width:0"
   d="M 1.5625,-2.140625 C 1.5625,-3.125 2.28125,-3.84375 3.265625,-3.875 v -0.65625 c -0.890625,0 -1.4375,0.5 -1.75,0.953125 v -0.90625 H 0.8125 V 0 h 0.75 z m 0,0"
   id="id-193811f2-5fe4-4123-a512-1a872a74c3fd" />
      </g><g
   transform="translate(171.1,134.765)"
   id="g996"><path
   style="stroke:none;stroke-width:0"
   d="M 1.625,-6.78125 H 0.734375 v 0.890625 H 1.625 Z m -0.0625,2.359375 h -0.75 V 0 h 0.75 z m 0,0"
   id="id-c0fee357-a636-47f9-956e-207c0504889e" />
      </g><g
   transform="translate(173.48,134.765)"
   id="g999"><path
   style="stroke:none;stroke-width:0"
   d="M 1.75,-3.84375 H 3.15625 V -4.421875 H 1.75 V -5.6875 H 1.0625 v 1.265625 h -0.875 v 0.578125 h 0.84375 v 2.65625 c 0,0.59375 0.140625,1.296875 0.828125,1.296875 0.6875,0 1.203125,-0.25 1.453125,-0.375 L 3.15625,-0.859375 C 2.890625,-0.640625 2.578125,-0.53125 2.25,-0.53125 c -0.359375,0 -0.5,-0.296875 -0.5,-0.828125 z m 0,0"
   id="id-e7f0e36f-3c77-4458-a946-c090b23c45ee" />
      </g></g>
    <g
   style="fill:#000000;fill-opacity:1"
   id="id-570d7b10-11ee-4674-badd-a0e3f8d9b822">
      <g
   transform="translate(176.799,134.765)"
   id="g1003"><path
   style="stroke:none;stroke-width:0"
   d="m 4.453125,-4.421875 h -0.75 C 2.40625,-1.25 2.375,-0.796875 2.375,-0.5625 H 2.359375 C 2.296875,-1.234375 1.5,-3.09375 1.46875,-3.1875 L 0.921875,-4.421875 H 0.140625 L 2.078125,0 C 1.953125,0.3125 1.75,0.8125 1.71875,0.890625 1.453125,1.46875 1.28125,1.46875 1.140625,1.46875 0.984375,1.46875 0.671875,1.4375 0.375,1.3125 l 0.046875,0.65625 c 0.21875,0.046875 0.5,0.078125 0.71875,0.078125 0.359375,0 0.71875,-0.125 1.125,-1.140625 z m 0,0"
   id="id-bb507a28-06d6-4780-af69-62ff9b3dc523" />
      </g></g>
    <g
   style="fill:#000000;fill-opacity:1"
   id="id-74590fef-4c6b-4871-a9ce-e5b1f3f9c72d">
      <g
   transform="translate(184.716,134.765)"
   id="g1007"><path
   style="stroke:none;stroke-width:0"
   d="m 4.75,-2.359375 c 0,-1.5625 -0.921875,-2.046875 -1.65625,-2.046875 -1.375,0 -2.6875,1.421875 -2.6875,2.828125 0,0.9375 0.59375,1.6875 1.625,1.6875 0.625,0 1.34375,-0.234375 2.09375,-0.84375 0.125,0.53125 0.453125,0.84375 0.90625,0.84375 0.53125,0 0.84375,-0.546875 0.84375,-0.703125 0,-0.078125 -0.0625,-0.109375 -0.125,-0.109375 -0.0625,0 -0.09375,0.03125 -0.125,0.109375 -0.1875,0.484375 -0.546875,0.484375 -0.5625,0.484375 -0.3125,0 -0.3125,-0.78125 -0.3125,-1.015625 0,-0.203125 0,-0.234375 0.109375,-0.34375 C 5.796875,-2.65625 6,-3.8125 6,-3.8125 6,-3.84375 5.984375,-3.921875 5.875,-3.921875 c -0.09375,0 -0.09375,0.03125 -0.140625,0.21875 -0.1875,0.625 -0.515625,1.375 -0.984375,1.96875 z m -0.65625,1.375 c -0.890625,0.765625 -1.65625,0.875 -2.046875,0.875 -0.59375,0 -0.90625,-0.453125 -0.90625,-1.09375 0,-0.484375 0.265625,-1.5625 0.578125,-2.0625 C 2.1875,-4 2.734375,-4.1875 3.078125,-4.1875 c 0.984375,0 0.984375,1.3125 0.984375,2.078125 0,0.375 0,0.953125 0.03125,1.125 z m 0,0"
   id="id-454a04af-fdfb-483e-a9da-b595cde7557f" />
      </g></g>
  </g>
</g></g></svg>
